{
  "accessors": [
    {
      "bufferView": 2,
      "componentType": 5126,
      "count": 23377,
      "max": [
        1.279860019683838,
        0.9079579710960388,
        1.8027900457382202
      ],
      "min": [
        -1.279860019683838,
        -0.9079579710960388,
        -1.8027900457382202
      ],
      "type": "VEC3"
    },
    {
      "bufferView": 2,
      "byteOffset": 280524,
      "componentType": 5126,
      "count": 23377,
      "max": [
        0.9999593496322632,
        0.9999970197677612,
        0.9999004602432251
      ],
      "min": [
        -0.9999593496322632,
        -1.0,
        -0.9999792575836182
      ],
      "type": "VEC3"
    },
    {
      "bufferView": 1,
      "componentType": 5126,
      "count": 23377,
      "max": [
        0.998645007610321,
        0.9980159997940063
      ],
      "min": [
        0.0013144999975338578,
        0.0023647299967706203
      ],
      "type": "VEC2"
    },
    {
      "bufferView": 0,
      "componentType": 5125,
      "count": 56205,
      "type": "SCALAR"
    },
    {
      "bufferView": 2,
      "byteOffset": 561048,
      "componentType": 5126,
      "count": 292,
      "max": [
        -0.0822833999991417,
        0.18412800133228302,
        1.5165599584579468
      ],
      "min": [
        -0.19735999405384064,
        0.12549899518489838,
        1.4814300537109375
      ],
      "type": "VEC3"
    },
    {
      "bufferView": 2,
      "byteOffset": 564552,
      "componentType": 5126,
      "count": 292,
      "max": [
        0.9850794672966003,
        0.9989621043205261,
        0.9925342202186584
      ],
      "min": [
        -0.9964842200279236,
        -0.9992143511772156,
        -0.9992119073867798
      ],
      "type": "VEC3"
    },
    {
      "bufferView": 1,
      "byteOffset": 187016,
      "componentType": 5126,
      "count": 292,
      "max": [
        0.8065429925918579,
        0.46764901280403137
      ],
      "min": [
        0.2657009959220886,
        0.13490000367164612
      ],
      "type": "VEC2"
    },
    {
      "bufferView": 0,
      "byteOffset": 224820,
      "componentType": 5125,
      "count": 1536,
      "type": "SCALAR"
    }
  ],
  "asset": {
    "extras": {
      "author": "romanyuk (https://sketchfab.com/romanyuk)",
      "license": "CC-BY-4.0 (http://creativecommons.org/licenses/by/4.0/)",
      "source": "https://sketchfab.com/3d-models/low-poly-garen-90f05fa834804e62a0ea36a2ca338f3b",
      "title": "Low Poly Garen_"
    },
    "generator": "Sketchfab-12.65.0",
    "version": "2.0"
  },
  "bufferViews": [
    {
      "buffer": 0,
      "byteLength": 230964,
      "name": "floatBufferViews",
      "target": 34963
    },
    {
      "buffer": 0,
      "byteLength": 189352,
      "byteOffset": 230964,
      "byteStride": 8,
      "name": "floatBufferViews",
      "target": 34962
    },
    {
      "buffer": 0,
      "byteLength": 568056,
      "byteOffset": 420316,
      "byteStride": 12,
      "name": "floatBufferViews",
      "target": 34962
    }
  ],
  "buffers": [
    {
      "byteLength": 988372,
      "uri": "scene.bin"
    }
  ],
  "extensionsUsed": [
    "KHR_materials_unlit"
  ],
  "images": [
    {
      "uri": "textures/Scene_-_Root_baseColor.jpeg"
    }
  ],
  "materials": [
    {
      "doubleSided": true,
      "extensions": {
        "KHR_materials_unlit": {}
      },
      "name": "Scene_-_Root",
      "pbrMetallicRoughness": {
        "baseColorTexture": {
          "index": 0
        },
        "metallicFactor": 0.0
      }
    }
  ],
  "meshes": [
    {
      "name": "Object_0",
      "primitives": [
        {
          "attributes": {
            "NORMAL": 1,
            "POSITION": 0,
            "TEXCOORD_0": 2
          },
          "indices": 3,
          "material": 0,
          "mode": 4
        }
      ]
    },
    {
      "name": "Object_1",
      "primitives": [
        {
          "attributes": {
            "NORMAL": 5,
            "POSITION": 4,
            "TEXCOORD_0": 6
          },
          "indices": 7,
          "material": 0,
          "mode": 4
        }
      ]
    }
  ],
  "nodes": [
    {
      "children": [
        1
      ],
      "matrix": [
        1.0,
        0.0,
        0.0,
        0.0,
        0.0,
        2.220446049250313e-16,
        -1.0,
        0.0,
        0.0,
        1.0,
        2.220446049250313e-16,
        0.0,
        0.0,
        0.0,
        0.0,
        1.0
      ],
      "name": "Sketchfab_model"
    },
    {
      "children": [
        2,
        3
      ],
      "name": "b137609479e34bc3bf215142d91b745b.obj.cleaner"
    },
    {
      "mesh": 0,
      "name": "Object_2"
    },
    {
      "mesh": 1,
      "name": "Object_3"
    }
  ],
  "samplers": [
    {
      "magFilter": 9729,
      "minFilter": 9987,
      "wrapS": 10497,
      "wrapT": 10497
    }
  ],
  "scene": 0,
  "scenes": [
    {
      "name": "Sketchfab_Scene",
      "nodes": [
        0
      ]
    }
  ],
  "textures": [
    {
      "sampler": 0,
      "source": 0
    }
  ]
}
